<svg width="31" height="30" viewBox="0 0 31 30" fill="none" xmlns="http://www.w3.org/2000/svg">
<rect x="0.76709" y="0.43457" width="29.5385" height="29.5385" rx="14.7692" fill="#F6F6F6"/>
<g clip-path="url(#clip0_7078_50834)" filter="url(#filter0_i_7078_50834)">
<g clip-path="url(#clip1_7078_50834)">
<path d="M22.6736 17.8377C22.6736 18.0175 22.6639 18.1963 22.6444 18.3725C22.5285 19.4473 22.0649 20.4193 21.367 21.171C21.4549 21.073 21.5341 20.9678 21.6036 20.8551C21.6572 20.7694 21.7049 20.6802 21.7452 20.587C21.7598 20.5564 21.7731 20.5245 21.7841 20.4929C21.7975 20.4623 21.8085 20.4304 21.8182 20.3987C21.8293 20.3694 21.839 20.3388 21.8475 20.3081C21.8559 20.2762 21.8647 20.2446 21.8718 20.2127C21.8731 20.2091 21.8744 20.2052 21.8754 20.2016C21.8829 20.1697 21.8888 20.1381 21.8949 20.1062C21.9011 20.0733 21.9072 20.0401 21.9121 20.0072C21.9121 20.0059 21.9121 20.0059 21.9121 20.0048C21.917 19.9742 21.9206 19.9436 21.9231 19.9117C21.9306 19.8394 21.9341 19.7674 21.9341 19.6938C21.9341 19.2801 21.8206 18.8919 21.6218 18.5616C21.5767 18.4844 21.5267 18.4111 21.4718 18.3414C21.4072 18.258 21.3377 18.1798 21.2621 18.1075C21.0741 17.9251 20.8547 17.7757 20.6118 17.6704C20.507 17.6239 20.3972 17.586 20.2849 17.5577C20.2836 17.5577 20.2813 17.5565 20.28 17.5565L20.2411 17.5431L19.6726 17.3473V17.346L18.1854 16.833C18.1806 16.8318 18.1744 16.8318 18.1708 16.8307L18.078 16.7965C17.779 16.6789 17.5313 16.4587 17.3765 16.1783L16.8337 14.7888L16.2114 13.1974L16.0919 12.8902L16.0614 12.8277C16.0273 12.7444 16.0088 12.6538 16.0088 12.5596C16.0088 12.5352 16.0088 12.5108 16.0114 12.4886C16.0467 12.1385 16.3431 11.8643 16.7019 11.8643C16.797 11.8643 16.8885 11.8838 16.9716 11.9193L19.7429 13.3451L20.2895 13.6255C20.5788 13.7981 20.8483 14.0013 21.0947 14.2303C21.9877 15.053 22.5734 16.2061 22.6613 17.4952C22.6688 17.6089 22.6736 17.7227 22.6736 17.8377Z" fill="url(#paint0_linear_7078_50834)"/>
<path d="M21.9334 19.6934C21.9334 19.8354 21.9201 19.9726 21.8955 20.1061C21.888 20.1416 21.8808 20.1771 21.8724 20.2126C21.8565 20.2761 21.8396 20.3374 21.8188 20.3986C21.8078 20.4305 21.7967 20.4621 21.7847 20.4927C21.7724 20.5246 21.759 20.5553 21.7457 20.5869C21.7055 20.68 21.6578 20.7693 21.6042 20.855C21.5347 20.9677 21.4552 21.0729 21.3675 21.1709C20.9637 21.619 19.5921 22.4181 19.0868 22.7428L17.9647 23.4307C17.1427 23.939 16.3652 24.2987 15.3855 24.3231C15.3391 24.3244 15.294 24.3257 15.2488 24.3257C15.1855 24.3257 15.1232 24.3244 15.0609 24.3221C13.4017 24.2586 11.9545 23.3648 11.1201 22.044C10.7383 21.4405 10.4858 20.7477 10.4004 20.0034C10.5796 21.0207 11.4632 21.7919 12.5283 21.7919C12.9017 21.7919 13.2519 21.6978 13.5581 21.5311C13.5604 21.5298 13.5629 21.5285 13.5655 21.5275L13.6752 21.4613L14.1219 21.1969L14.6904 20.8591V20.8431L14.7637 20.7991L19.8503 17.7755L20.2419 17.543L20.2808 17.5563C20.2821 17.5563 20.2844 17.5576 20.2857 17.5576C20.398 17.5857 20.5078 17.6238 20.6126 17.6703C20.8555 17.7755 21.0749 17.925 21.2629 18.1074C21.3385 18.1797 21.408 18.2579 21.4726 18.3413C21.5275 18.411 21.5775 18.4846 21.6226 18.5615C21.8198 18.8915 21.9334 19.2798 21.9334 19.6934Z" fill="url(#paint1_linear_7078_50834)"/>
<path d="M14.6916 9.6026L14.6898 20.8584L14.1213 21.1964L13.6744 21.4606L13.5644 21.5275C13.5626 21.5275 13.5593 21.5293 13.5577 21.5309C13.2511 21.6965 12.9008 21.792 12.5272 21.792C11.4618 21.792 10.5798 21.0207 10.3995 20.0035C10.3911 19.9567 10.3847 19.908 10.3795 19.8612C10.3729 19.7725 10.368 19.6855 10.3662 19.5968V6.92912C10.3662 6.52933 10.6898 6.20312 11.0898 6.20312C11.2398 6.20312 11.3798 6.24995 11.4949 6.32687L13.7075 7.77732C13.7193 7.78735 13.7323 7.79584 13.7459 7.80407C14.318 8.19563 14.6916 8.85474 14.6916 9.6026Z" fill="url(#paint2_linear_7078_50834)"/>
<path opacity="0.15" d="M21.9334 19.6934C21.9334 19.8354 21.9201 19.9726 21.8955 20.1061C21.888 20.1416 21.8808 20.1771 21.8724 20.2126C21.8565 20.2761 21.8396 20.3374 21.8188 20.3986C21.8078 20.4305 21.7967 20.4621 21.7847 20.4927C21.7724 20.5246 21.759 20.5553 21.7457 20.5869C21.7055 20.68 21.6578 20.7693 21.6042 20.855C21.5347 20.9677 21.4555 21.0729 21.3675 21.1709C20.9637 21.619 19.5921 22.4181 19.0868 22.7428L17.9647 23.4307C17.1427 23.939 16.3652 24.2987 15.3855 24.3231C15.3391 24.3244 15.294 24.3257 15.2488 24.3257C15.1855 24.3257 15.1232 24.3244 15.0609 24.3221C13.4017 24.2586 11.9545 23.3648 11.1201 22.044C10.7383 21.4405 10.4858 20.7477 10.4004 20.0034C10.5796 21.0207 11.4632 21.7919 12.5283 21.7919C12.9017 21.7919 13.2519 21.6978 13.5581 21.5311C13.5604 21.5298 13.5629 21.5285 13.5655 21.5275L13.6752 21.4613L14.1219 21.1969L14.6904 20.8591V20.8431L14.7637 20.7991L19.8503 17.7755L20.2419 17.543L20.2808 17.5563C20.2821 17.5563 20.2844 17.5576 20.2857 17.5576C20.398 17.5857 20.5078 17.6238 20.6126 17.6703C20.8555 17.7755 21.0749 17.925 21.2629 18.1074C21.3385 18.1797 21.408 18.2579 21.4726 18.3413C21.5275 18.411 21.5775 18.4846 21.6226 18.5615C21.8198 18.8915 21.9334 19.2798 21.9334 19.6934Z" fill="url(#paint3_linear_7078_50834)"/>
<path opacity="0.1" d="M14.6916 9.6026L14.6898 20.8584L14.1213 21.1964L13.6744 21.4606L13.5644 21.5275C13.5626 21.5275 13.5593 21.5293 13.5577 21.5309C13.2511 21.6965 12.9008 21.792 12.5272 21.792C11.4618 21.792 10.5798 21.0207 10.3995 20.0035C10.3911 19.9567 10.3847 19.908 10.3795 19.8612C10.3729 19.7725 10.368 19.6855 10.3662 19.5968V6.92912C10.3662 6.52933 10.6898 6.20312 11.0898 6.20312C11.2398 6.20312 11.3798 6.24995 11.4949 6.32687L13.7075 7.77732C13.7193 7.78735 13.7323 7.79584 13.7459 7.80407C14.318 8.19563 14.6916 8.85474 14.6916 9.6026Z" fill="url(#paint4_linear_7078_50834)"/>
</g>
</g>
<defs>
<filter id="filter0_i_7078_50834" x="6.67432" y="5.97266" width="18.4614" height="20.7696" filterUnits="userSpaceOnUse" color-interpolation-filters="sRGB">
<feFlood flood-opacity="0" result="BackgroundImageFix"/>
<feBlend mode="normal" in="SourceGraphic" in2="BackgroundImageFix" result="shape"/>
<feColorMatrix in="SourceAlpha" type="matrix" values="0 0 0 0 0 0 0 0 0 0 0 0 0 0 0 0 0 0 127 0" result="hardAlpha"/>
<feOffset dy="2.30769"/>
<feGaussianBlur stdDeviation="3.75"/>
<feComposite in2="hardAlpha" operator="arithmetic" k2="-1" k3="1"/>
<feColorMatrix type="matrix" values="0 0 0 0 0.81875 0 0 0 0 0.824081 0 0 0 0 1 0 0 0 0.37 0"/>
<feBlend mode="normal" in2="shape" result="effect1_innerShadow_7078_50834"/>
</filter>
<linearGradient id="paint0_linear_7078_50834" x1="15.0438" y1="14.0475" x2="22.9817" y2="18.6153" gradientUnits="userSpaceOnUse">
<stop stop-color="#37BDFF"/>
<stop offset="0.1832" stop-color="#33BFFD"/>
<stop offset="0.3576" stop-color="#28C5F5"/>
<stop offset="0.528" stop-color="#15D0E9"/>
<stop offset="0.5468" stop-color="#12D1E7"/>
<stop offset="0.5903" stop-color="#1CD2E5"/>
<stop offset="0.7679" stop-color="#42D8DC"/>
<stop offset="0.9107" stop-color="#59DBD6"/>
<stop offset="1" stop-color="#62DCD4"/>
</linearGradient>
<linearGradient id="paint1_linear_7078_50834" x1="10.3999" y1="20.9341" x2="21.9333" y2="20.9341" gradientUnits="userSpaceOnUse">
<stop stop-color="#39D2FF"/>
<stop offset="0.1501" stop-color="#38CEFE"/>
<stop offset="0.2931" stop-color="#35C3FA"/>
<stop offset="0.4327" stop-color="#2FB0F3"/>
<stop offset="0.5468" stop-color="#299AEB"/>
<stop offset="0.5827" stop-color="#2692EC"/>
<stop offset="0.7635" stop-color="#1A6CF1"/>
<stop offset="0.909" stop-color="#1355F4"/>
<stop offset="1" stop-color="#104CF5"/>
</linearGradient>
<linearGradient id="paint2_linear_7078_50834" x1="12.5289" y1="21.9511" x2="12.5289" y2="6.47765" gradientUnits="userSpaceOnUse">
<stop stop-color="#1B48EF"/>
<stop offset="0.1221" stop-color="#1C51F0"/>
<stop offset="0.3212" stop-color="#1E69F5"/>
<stop offset="0.5676" stop-color="#2190FB"/>
<stop offset="1" stop-color="#26B8F4"/>
</linearGradient>
<linearGradient id="paint3_linear_7078_50834" x1="12.6924" y1="23.79" x2="19.8335" y2="16.6726" gradientUnits="userSpaceOnUse">
<stop stop-color="white"/>
<stop offset="0.3726" stop-color="#FDFDFD"/>
<stop offset="0.5069" stop-color="#F6F6F6"/>
<stop offset="0.6026" stop-color="#EBEBEB"/>
<stop offset="0.68" stop-color="#DADADA"/>
<stop offset="0.7463" stop-color="#C4C4C4"/>
<stop offset="0.805" stop-color="#A8A8A8"/>
<stop offset="0.8581" stop-color="#888888"/>
<stop offset="0.9069" stop-color="#626262"/>
<stop offset="0.9523" stop-color="#373737"/>
<stop offset="0.9926" stop-color="#090909"/>
<stop offset="1"/>
</linearGradient>
<linearGradient id="paint4_linear_7078_50834" x1="12.5289" y1="6.20312" x2="12.5289" y2="21.7918" gradientUnits="userSpaceOnUse">
<stop stop-color="white"/>
<stop offset="0.3726" stop-color="#FDFDFD"/>
<stop offset="0.5069" stop-color="#F6F6F6"/>
<stop offset="0.6026" stop-color="#EBEBEB"/>
<stop offset="0.68" stop-color="#DADADA"/>
<stop offset="0.7463" stop-color="#C4C4C4"/>
<stop offset="0.805" stop-color="#A8A8A8"/>
<stop offset="0.8581" stop-color="#888888"/>
<stop offset="0.9069" stop-color="#626262"/>
<stop offset="0.9523" stop-color="#373737"/>
<stop offset="0.9926" stop-color="#090909"/>
<stop offset="1"/>
</linearGradient>
<clipPath id="clip0_7078_50834">
<rect width="18.4615" height="18.4615" fill="white" transform="translate(6.67432 5.97266)"/>
</clipPath>
<clipPath id="clip1_7078_50834">
<rect width="12.3077" height="18.4615" fill="white" transform="translate(10.3667 5.97266)"/>
</clipPath>
</defs>
</svg>
