<svg xmlns="http://www.w3.org/2000/svg" width="33" height="36" viewBox="0 0 33 36" fill="#174AE4">
    <path d="M11.9219 5C10.3082 5 9 6.30817 9 7.92187V29.5781C9 31.1918 10.3082 32.5 11.9219 32.5H22.5781C24.1918 32.5 25.5 31.1918 25.5 29.5781V7.92187C25.5 6.30817 24.1918 5 22.5781 5H11.9219ZM10.7187 7.92187C10.7187 7.25741 11.2574 6.71875 11.9219 6.71875H22.5781C23.2426 6.71875 23.7812 7.25741 23.7812 7.92187V29.5781C23.7812 30.2426 23.2426 30.7812 22.5781 30.7812H11.9219C11.2574 30.7812 10.7187 30.2426 10.7187 29.5781V7.92187ZM15.3594 26.6562C14.8848 26.6562 14.5 27.041 14.5 27.5156C14.5 27.9902 14.8848 28.375 15.3594 28.375H19.1406C19.6152 28.375 20 27.9902 20 27.5156C20 27.041 19.6152 26.6562 19.1406 26.6562H15.3594Z" />
</svg>