<svg width="291" height="55" viewBox="0 0 291 55" fill="none" xmlns="http://www.w3.org/2000/svg">
<path d="M50.625 46.5779H38.5533V14.8225C37.5017 15.5466 36.2718 16.1936 34.8696 16.7604C33.4675 17.3304 31.9393 17.8603 30.2881 18.3564L26.9766 8.58669C29.9684 7.71786 32.7849 6.63953 35.4262 5.34553C38.0675 4.05461 40.389 2.64354 42.3907 1.1123H50.625V46.5779Z" fill="white"/>
<path d="M73.531 47.3229C67.3598 47.3229 62.8583 45.3634 60.0202 41.4445C57.1821 37.5255 55.7646 31.9706 55.7646 24.7765C55.7646 17.5825 57.2406 11.5716 60.1893 7.48626C63.1412 3.404 67.5874 1.36133 73.5279 1.36133C79.8221 1.36133 84.3451 3.29924 87.1002 7.17508C89.8552 11.0509 91.2328 16.7538 91.2328 24.2774C91.2328 31.8011 89.7968 37.2667 86.9311 41.2873C84.0623 45.308 79.5945 47.3199 73.5279 47.3199L73.531 47.3229ZM73.5002 9.79697C71.8921 9.79697 70.6837 10.8876 69.8781 13.0689C69.0725 15.2502 68.6697 19.1107 68.6697 24.6533C68.6697 30.1959 69.0817 33.6158 69.9088 35.7262C70.7329 37.8336 71.9413 38.8904 73.531 38.8904C75.2221 38.8904 76.4459 37.8151 77.1993 35.6646C77.9526 33.5141 78.3277 29.7738 78.3277 24.4376C78.3277 19.1014 77.9403 15.1763 77.1654 13.0258C76.3906 10.8753 75.1699 9.80005 73.4972 9.80005L73.5002 9.79697Z" fill="white"/>
<path d="M110.707 47.3229C104.536 47.3229 100.034 45.3634 97.196 41.4445C94.3579 37.5255 92.9404 31.9706 92.9404 24.7765C92.9404 17.5825 94.4163 11.5716 97.3651 7.48626C100.317 3.404 104.763 1.36133 110.704 1.36133C116.998 1.36133 121.521 3.29924 124.276 7.17508C127.031 11.0509 128.409 16.7538 128.409 24.2774C128.409 31.8011 126.973 37.2667 124.107 41.2873C121.238 45.308 116.77 47.3199 110.704 47.3199L110.707 47.3229ZM110.676 9.79697C109.068 9.79697 107.859 10.8876 107.054 13.0689C106.248 15.2502 105.845 19.1107 105.845 24.6533C105.845 30.1959 106.257 33.6158 107.085 35.7262C107.909 37.8336 109.117 38.8904 110.707 38.8904C112.398 38.8904 113.622 37.8151 114.375 35.6646C115.128 33.5141 115.504 29.7738 115.504 24.4376C115.504 19.1014 115.116 15.1763 114.341 13.0258C113.566 10.8753 112.346 9.80005 110.673 9.80005L110.676 9.79697Z" fill="white"/>
<path d="M147.885 47.3229C141.714 47.3229 137.212 45.3634 134.374 41.4445C131.536 37.5255 130.119 31.9706 130.119 24.7765C130.119 17.5825 131.595 11.5716 134.543 7.48626C137.495 3.404 141.941 1.36133 147.882 1.36133C154.176 1.36133 158.699 3.29924 161.454 7.17508C164.209 11.0509 165.587 16.7538 165.587 24.2774C165.587 31.8011 164.151 37.2667 161.285 41.2873C158.416 45.308 153.949 47.3199 147.882 47.3199L147.885 47.3229ZM147.854 9.79697C146.246 9.79697 145.038 10.8876 144.232 13.0689C143.426 15.2502 143.024 19.1107 143.024 24.6533C143.024 30.1959 143.436 33.6158 144.263 35.7262C145.087 37.8336 146.295 38.8904 147.885 38.8904C149.576 38.8904 150.8 37.8151 151.553 35.6646C152.307 33.5141 152.682 29.7738 152.682 24.4376C152.682 19.1014 152.294 15.1763 151.519 13.0258C150.745 10.8753 149.524 9.80005 147.851 9.80005L147.854 9.79697Z" fill="white"/>
<path d="M185.059 47.3229C178.888 47.3229 174.386 45.3634 171.548 41.4445C168.71 37.5255 167.292 31.9706 167.292 24.7765C167.292 17.5825 168.768 11.5716 171.717 7.48626C174.669 3.404 179.115 1.36133 185.056 1.36133C191.35 1.36133 195.873 3.29924 198.628 7.17508C201.383 11.0509 202.761 16.7538 202.761 24.2774C202.761 31.8011 201.325 37.2667 198.459 41.2873C195.59 45.308 191.122 47.3199 185.056 47.3199L185.059 47.3229ZM185.028 9.79697C183.42 9.79697 182.212 10.8876 181.406 13.0689C180.6 15.2502 180.198 19.1107 180.198 24.6533C180.198 30.1959 180.61 33.6158 181.437 35.7262C182.261 37.8336 183.469 38.8904 185.059 38.8904C186.75 38.8904 187.974 37.8151 188.727 35.6646C189.48 33.5141 189.856 29.7738 189.856 24.4376C189.856 19.1014 189.468 15.1763 188.693 13.0258C187.918 10.8753 186.698 9.80005 185.025 9.80005L185.028 9.79697Z" fill="white"/>
<path d="M222.237 47.3229C216.065 47.3229 211.564 45.3634 208.726 41.4445C205.888 37.5255 204.47 31.9706 204.47 24.7765C204.47 17.5825 205.946 11.5716 208.895 7.48626C211.847 3.404 216.293 1.36133 222.233 1.36133C228.528 1.36133 233.051 3.29924 235.806 7.17508C238.561 11.0509 239.938 16.7538 239.938 24.2774C239.938 31.8011 238.502 37.2667 235.637 41.2873C232.768 45.308 228.3 47.3199 222.233 47.3199L222.237 47.3229ZM222.206 9.79697C220.598 9.79697 219.389 10.8876 218.584 13.0689C217.778 15.2502 217.375 19.1107 217.375 24.6533C217.375 30.1959 217.787 33.6158 218.614 35.7262C219.438 37.8336 220.647 38.8904 222.237 38.8904C223.928 38.8904 225.151 37.8151 225.905 35.6646C226.658 33.5141 227.033 29.7738 227.033 24.4376C227.033 19.1014 226.646 15.1763 225.871 13.0258C225.096 10.8753 223.875 9.80005 222.203 9.80005L222.206 9.79697Z" fill="white"/>
<path d="M259.41 47.3229C253.239 47.3229 248.737 45.3634 245.899 41.4445C243.061 37.5255 241.644 31.9706 241.644 24.7765C241.644 17.5825 243.119 11.5716 246.068 7.48626C249.02 3.404 253.466 1.36133 259.407 1.36133C265.701 1.36133 270.224 3.29924 272.979 7.17508C275.734 11.0509 277.112 16.7538 277.112 24.2774C277.112 31.8011 275.676 37.2667 272.81 41.2873C269.941 45.308 265.473 47.3199 259.407 47.3199L259.41 47.3229ZM259.379 9.79697C257.771 9.79697 256.563 10.8876 255.757 13.0689C254.951 15.2502 254.549 19.1107 254.549 24.6533C254.549 30.1959 254.961 33.6158 255.788 35.7262C256.612 37.8336 257.82 38.8904 259.41 38.8904C261.101 38.8904 262.325 37.8151 263.078 35.6646C263.832 33.5141 264.207 29.7738 264.207 24.4376C264.207 19.1014 263.819 15.1763 263.044 13.0258C262.269 10.8753 261.049 9.80005 259.376 9.80005L259.379 9.79697Z" fill="white"/>
<path d="M13.4473 25.0696V27.9903H9.55152V25.085C7.50676 24.8015 5.71106 24.25 4.16135 23.4274C2.61164 22.6048 1.40323 21.5696 0.536133 20.3188L6.3783 17.0961C6.80263 17.6999 7.3192 18.196 7.93416 18.578C8.54913 18.9601 9.08722 19.1788 9.54845 19.2281V16.8527C6.67963 16.4183 4.54571 15.5957 3.14666 14.3879C1.74761 13.1771 1.04655 11.7044 1.04655 9.96984C1.04655 7.94258 1.77529 6.30352 3.23583 5.05265C4.69637 3.80178 6.77495 3.08084 9.47158 2.88982V0.320312H13.3674V2.98225C15.0585 3.13322 16.7066 3.61693 18.3117 4.43338C19.9168 5.24983 21.0175 6.36514 21.611 7.77621L15.4367 10.0746C15.1938 9.69256 14.9171 9.36906 14.5973 9.10718C14.2806 8.8453 13.8686 8.62347 13.3674 8.4417V11.1344C16.0056 11.3378 18.1272 12.031 19.7323 13.2233C21.3373 14.4126 22.1399 15.9407 22.1399 17.8078C22.1399 19.8751 21.4665 21.5357 20.1166 22.7928C18.7668 24.0498 16.5437 24.8077 13.4443 25.0696H13.4473ZM9.47773 10.7586V8.20138C9.0042 8.30305 8.66597 8.46634 8.45996 8.69433C8.25394 8.92232 8.1494 9.19036 8.1494 9.50462C8.1494 9.89898 8.26624 10.1917 8.49686 10.3889C8.72747 10.586 9.05647 10.7093 9.47773 10.7586ZM13.4473 17.1731V19.6379C13.8901 19.5978 14.2314 19.4592 14.4743 19.2219C14.7172 18.9847 14.8371 18.7013 14.8371 18.3685C14.8371 18.0358 14.7234 17.777 14.4989 17.5675C14.2714 17.3549 13.9239 17.2255 13.4504 17.1731H13.4473Z" fill="#8CE872"/>
<path d="M290.146 15.0874C290.146 15.9038 289.839 16.5755 289.224 17.1054C288.609 17.6353 287.825 17.8972 286.868 17.8972C285.912 17.8972 285.146 17.6322 284.534 17.1054C283.923 16.5755 283.618 15.9038 283.618 15.0874V10.7617H286.041V15.0504C286.041 15.3308 286.124 15.5618 286.293 15.7467C286.459 15.9285 286.675 16.0209 286.93 16.0209C287.185 16.0209 287.4 15.9285 287.566 15.7467C287.735 15.5649 287.818 15.3308 287.818 15.0504V10.7617H290.143V15.0874H290.146Z" fill="white"/>
<path d="M283.35 25.6092L285.348 24.6048C285.53 24.8759 285.773 25.0793 286.071 25.2179C286.369 25.3566 286.698 25.4244 287.058 25.4244C287.261 25.4244 287.427 25.3935 287.559 25.3319C287.691 25.2703 287.756 25.1748 287.756 25.0423C287.756 24.9098 287.697 24.8082 287.581 24.7373C287.464 24.6695 287.23 24.6171 286.883 24.5863C285.902 24.4939 285.142 24.2536 284.604 23.8654C284.066 23.4772 283.795 22.938 283.795 22.251C283.795 21.5639 284.06 21.0248 284.589 20.6088C285.118 20.1929 285.926 19.9834 287.015 19.9834C287.863 19.9834 288.586 20.1374 289.176 20.4486C289.767 20.7598 290.16 21.1418 290.351 21.5978L288.251 22.3681C288.134 22.2017 287.965 22.06 287.747 21.9398C287.528 21.8196 287.273 21.7611 286.981 21.7611C286.781 21.7611 286.624 21.8012 286.504 21.8813C286.384 21.9614 286.326 22.0569 286.326 22.174C286.326 22.3064 286.397 22.405 286.541 22.4666C286.686 22.5283 286.938 22.5714 287.298 22.593C288.451 22.6607 289.275 22.8887 289.77 23.2708C290.265 23.6528 290.514 24.1704 290.514 24.8143C290.514 25.5907 290.216 26.1884 289.616 26.6074C289.017 27.0264 288.165 27.236 287.055 27.236C286.2 27.236 285.453 27.0973 284.81 26.8169C284.168 26.5366 283.682 26.133 283.353 25.6L283.35 25.6092Z" fill="white"/>
<path d="M283.701 36.4725V29.4541H286.523C287.812 29.4541 288.805 29.7499 289.497 30.3414C290.189 30.933 290.536 31.7771 290.536 32.877C290.536 34.0324 290.185 34.9197 289.484 35.5421C288.783 36.1644 287.784 36.4756 286.486 36.4756H283.701V36.4725ZM286.127 31.2873V34.6363H286.41C286.926 34.6363 287.326 34.4853 287.603 34.1864C287.879 33.8876 288.018 33.4563 288.018 32.8955C288.018 32.381 287.876 31.9836 287.596 31.7063C287.317 31.429 286.917 31.2903 286.4 31.2903H286.127V31.2873Z" fill="white"/>
<path d="M170.982 38.7305L166.475 54.4279H155.707L158.883 38.7305H170.982Z" fill="#8CE872"/>
<path d="M62.4598 38.7305L57.9521 54.4279H47.1841L50.3604 38.7305H62.4598Z" fill="#8CE872"/>
</svg>
