<svg xmlns="http://www.w3.org/2000/svg" version="1.1" width="180" height="180">
  <rect x="0" y="0" width="180" height="180" style="fill:#ffffff;shape-rendering:crispEdges;"></rect>
  <path x="0" y="0" style="fill:#000;shape-rendering:crispEdges;" d="M4.62,4.62 V9.23 H9.23 V4.62 H4.62 Z M9.23,4.62 V9.23 H13.85 V4.62 H9.23 Z M13.85,4.62 V9.23 H18.46 V4.62 H13.85 Z M18.46,4.62 V9.23 H23.08 V4.62 H18.46 Z M23.08,4.62 V9.23 H27.69 V4.62 H23.08 Z M27.69,4.62 V9.23 H32.31 V4.62 H27.69 Z M32.31,4.62 V9.23 H36.92 V4.62 H32.31 Z M41.54,4.62 V9.23 H46.15 V4.62 H41.54 Z M50.77,4.62 V9.23 H55.38 V4.62 H50.77 Z M60.00,4.62 V9.23 H64.62 V4.62 H60.00 Z M69.23,4.62 V9.23 H73.85 V4.62 H69.23 Z M78.46,4.62 V9.23 H83.08 V4.62 H78.46 Z M83.08,4.62 V9.23 H87.69 V4.62 H83.08 Z M96.92,4.62 V9.23 H101.54 V4.62 H96.92 Z M101.54,4.62 V9.23 H106.15 V4.62 H101.54 Z M106.15,4.62 V9.23 H110.77 V4.62 H106.15 Z M110.77,4.62 V9.23 H115.38 V4.62 H110.77 Z M120.00,4.62 V9.23 H124.62 V4.62 H120.00 Z M124.62,4.62 V9.23 H129.23 V4.62 H124.62 Z M129.23,4.62 V9.23 H133.85 V4.62 H129.23 Z M133.85,4.62 V9.23 H138.46 V4.62 H133.85 Z M143.08,4.62 V9.23 H147.69 V4.62 H143.08 Z M147.69,4.62 V9.23 H152.31 V4.62 H147.69 Z M152.31,4.62 V9.23 H156.92 V4.62 H152.31 Z M156.92,4.62 V9.23 H161.54 V4.62 H156.92 Z M161.54,4.62 V9.23 H166.15 V4.62 H161.54 Z M166.15,4.62 V9.23 H170.77 V4.62 H166.15 Z M170.77,4.62 V9.23 H175.38 V4.62 H170.77 Z M4.62,9.23 V13.85 H9.23 V9.23 H4.62 Z M32.31,9.23 V13.85 H36.92 V9.23 H32.31 Z M41.54,9.23 V13.85 H46.15 V9.23 H41.54 Z M55.38,9.23 V13.85 H60.00 V9.23 H55.38 Z M78.46,9.23 V13.85 H83.08 V9.23 H78.46 Z M92.31,9.23 V13.85 H96.92 V9.23 H92.31 Z M96.92,9.23 V13.85 H101.54 V9.23 H96.92 Z M101.54,9.23 V13.85 H106.15 V9.23 H101.54 Z M124.62,9.23 V13.85 H129.23 V9.23 H124.62 Z M143.08,9.23 V13.85 H147.69 V9.23 H143.08 Z M170.77,9.23 V13.85 H175.38 V9.23 H170.77 Z M4.62,13.85 V18.46 H9.23 V13.85 H4.62 Z M13.85,13.85 V18.46 H18.46 V13.85 H13.85 Z M18.46,13.85 V18.46 H23.08 V13.85 H18.46 Z M23.08,13.85 V18.46 H27.69 V13.85 H23.08 Z M32.31,13.85 V18.46 H36.92 V13.85 H32.31 Z M46.15,13.85 V18.46 H50.77 V13.85 H46.15 Z M50.77,13.85 V18.46 H55.38 V13.85 H50.77 Z M69.23,13.85 V18.46 H73.85 V13.85 H69.23 Z M73.85,13.85 V18.46 H78.46 V13.85 H73.85 Z M78.46,13.85 V18.46 H83.08 V13.85 H78.46 Z M101.54,13.85 V18.46 H106.15 V13.85 H101.54 Z M110.77,13.85 V18.46 H115.38 V13.85 H110.77 Z M124.62,13.85 V18.46 H129.23 V13.85 H124.62 Z M133.85,13.85 V18.46 H138.46 V13.85 H133.85 Z M143.08,13.85 V18.46 H147.69 V13.85 H143.08 Z M152.31,13.85 V18.46 H156.92 V13.85 H152.31 Z M156.92,13.85 V18.46 H161.54 V13.85 H156.92 Z M161.54,13.85 V18.46 H166.15 V13.85 H161.54 Z M170.77,13.85 V18.46 H175.38 V13.85 H170.77 Z M4.62,18.46 V23.08 H9.23 V18.46 H4.62 Z M13.85,18.46 V23.08 H18.46 V18.46 H13.85 Z M18.46,18.46 V23.08 H23.08 V18.46 H18.46 Z M23.08,18.46 V23.08 H27.69 V18.46 H23.08 Z M32.31,18.46 V23.08 H36.92 V18.46 H32.31 Z M41.54,18.46 V23.08 H46.15 V18.46 H41.54 Z M50.77,18.46 V23.08 H55.38 V18.46 H50.77 Z M60.00,18.46 V23.08 H64.62 V18.46 H60.00 Z M69.23,18.46 V23.08 H73.85 V18.46 H69.23 Z M78.46,18.46 V23.08 H83.08 V18.46 H78.46 Z M83.08,18.46 V23.08 H87.69 V18.46 H83.08 Z M96.92,18.46 V23.08 H101.54 V18.46 H96.92 Z M101.54,18.46 V23.08 H106.15 V18.46 H101.54 Z M110.77,18.46 V23.08 H115.38 V18.46 H110.77 Z M115.38,18.46 V23.08 H120.00 V18.46 H115.38 Z M124.62,18.46 V23.08 H129.23 V18.46 H124.62 Z M143.08,18.46 V23.08 H147.69 V18.46 H143.08 Z M152.31,18.46 V23.08 H156.92 V18.46 H152.31 Z M156.92,18.46 V23.08 H161.54 V18.46 H156.92 Z M161.54,18.46 V23.08 H166.15 V18.46 H161.54 Z M170.77,18.46 V23.08 H175.38 V18.46 H170.77 Z M4.62,23.08 V27.69 H9.23 V23.08 H4.62 Z M13.85,23.08 V27.69 H18.46 V23.08 H13.85 Z M18.46,23.08 V27.69 H23.08 V23.08 H18.46 Z M23.08,23.08 V27.69 H27.69 V23.08 H23.08 Z M32.31,23.08 V27.69 H36.92 V23.08 H32.31 Z M41.54,23.08 V27.69 H46.15 V23.08 H41.54 Z M46.15,23.08 V27.69 H50.77 V23.08 H46.15 Z M50.77,23.08 V27.69 H55.38 V23.08 H50.77 Z M69.23,23.08 V27.69 H73.85 V23.08 H69.23 Z M73.85,23.08 V27.69 H78.46 V23.08 H73.85 Z M78.46,23.08 V27.69 H83.08 V23.08 H78.46 Z M83.08,23.08 V27.69 H87.69 V23.08 H83.08 Z M87.69,23.08 V27.69 H92.31 V23.08 H87.69 Z M92.31,23.08 V27.69 H96.92 V23.08 H92.31 Z M101.54,23.08 V27.69 H106.15 V23.08 H101.54 Z M106.15,23.08 V27.69 H110.77 V23.08 H106.15 Z M110.77,23.08 V27.69 H115.38 V23.08 H110.77 Z M129.23,23.08 V27.69 H133.85 V23.08 H129.23 Z M133.85,23.08 V27.69 H138.46 V23.08 H133.85 Z M143.08,23.08 V27.69 H147.69 V23.08 H143.08 Z M152.31,23.08 V27.69 H156.92 V23.08 H152.31 Z M156.92,23.08 V27.69 H161.54 V23.08 H156.92 Z M161.54,23.08 V27.69 H166.15 V23.08 H161.54 Z M170.77,23.08 V27.69 H175.38 V23.08 H170.77 Z M4.62,27.69 V32.31 H9.23 V27.69 H4.62 Z M32.31,27.69 V32.31 H36.92 V27.69 H32.31 Z M46.15,27.69 V32.31 H50.77 V27.69 H46.15 Z M50.77,27.69 V32.31 H55.38 V27.69 H50.77 Z M64.62,27.69 V32.31 H69.23 V27.69 H64.62 Z M69.23,27.69 V32.31 H73.85 V27.69 H69.23 Z M78.46,27.69 V32.31 H83.08 V27.69 H78.46 Z M101.54,27.69 V32.31 H106.15 V27.69 H101.54 Z M110.77,27.69 V32.31 H115.38 V27.69 H110.77 Z M120.00,27.69 V32.31 H124.62 V27.69 H120.00 Z M129.23,27.69 V32.31 H133.85 V27.69 H129.23 Z M143.08,27.69 V32.31 H147.69 V27.69 H143.08 Z M170.77,27.69 V32.31 H175.38 V27.69 H170.77 Z M4.62,32.31 V36.92 H9.23 V32.31 H4.62 Z M9.23,32.31 V36.92 H13.85 V32.31 H9.23 Z M13.85,32.31 V36.92 H18.46 V32.31 H13.85 Z M18.46,32.31 V36.92 H23.08 V32.31 H18.46 Z M23.08,32.31 V36.92 H27.69 V32.31 H23.08 Z M27.69,32.31 V36.92 H32.31 V32.31 H27.69 Z M32.31,32.31 V36.92 H36.92 V32.31 H32.31 Z M41.54,32.31 V36.92 H46.15 V32.31 H41.54 Z M50.77,32.31 V36.92 H55.38 V32.31 H50.77 Z M60.00,32.31 V36.92 H64.62 V32.31 H60.00 Z M69.23,32.31 V36.92 H73.85 V32.31 H69.23 Z M78.46,32.31 V36.92 H83.08 V32.31 H78.46 Z M87.69,32.31 V36.92 H92.31 V32.31 H87.69 Z M96.92,32.31 V36.92 H101.54 V32.31 H96.92 Z M106.15,32.31 V36.92 H110.77 V32.31 H106.15 Z M115.38,32.31 V36.92 H120.00 V32.31 H115.38 Z M124.62,32.31 V36.92 H129.23 V32.31 H124.62 Z M133.85,32.31 V36.92 H138.46 V32.31 H133.85 Z M143.08,32.31 V36.92 H147.69 V32.31 H143.08 Z M147.69,32.31 V36.92 H152.31 V32.31 H147.69 Z M152.31,32.31 V36.92 H156.92 V32.31 H152.31 Z M156.92,32.31 V36.92 H161.54 V32.31 H156.92 Z M161.54,32.31 V36.92 H166.15 V32.31 H161.54 Z M166.15,32.31 V36.92 H170.77 V32.31 H166.15 Z M170.77,32.31 V36.92 H175.38 V32.31 H170.77 Z M46.15,36.92 V41.54 H50.77 V36.92 H46.15 Z M50.77,36.92 V41.54 H55.38 V36.92 H50.77 Z M55.38,36.92 V41.54 H60.00 V36.92 H55.38 Z M60.00,36.92 V41.54 H64.62 V36.92 H60.00 Z M64.62,36.92 V41.54 H69.23 V36.92 H64.62 Z M69.23,36.92 V41.54 H73.85 V36.92 H69.23 Z M73.85,36.92 V41.54 H78.46 V36.92 H73.85 Z M78.46,36.92 V41.54 H83.08 V36.92 H78.46 Z M87.69,36.92 V41.54 H92.31 V36.92 H87.69 Z M120.00,36.92 V41.54 H124.62 V36.92 H120.00 Z M129.23,36.92 V41.54 H133.85 V36.92 H129.23 Z M4.62,41.54 V46.15 H9.23 V41.54 H4.62 Z M32.31,41.54 V46.15 H36.92 V41.54 H32.31 Z M36.92,41.54 V46.15 H41.54 V41.54 H36.92 Z M46.15,41.54 V46.15 H50.77 V41.54 H46.15 Z M50.77,41.54 V46.15 H55.38 V41.54 H50.77 Z M55.38,41.54 V46.15 H60.00 V41.54 H55.38 Z M64.62,41.54 V46.15 H69.23 V41.54 H64.62 Z M73.85,41.54 V46.15 H78.46 V41.54 H73.85 Z M78.46,41.54 V46.15 H83.08 V41.54 H78.46 Z M83.08,41.54 V46.15 H87.69 V41.54 H83.08 Z M92.31,41.54 V46.15 H96.92 V41.54 H92.31 Z M96.92,41.54 V46.15 H101.54 V41.54 H96.92 Z M101.54,41.54 V46.15 H106.15 V41.54 H101.54 Z M120.00,41.54 V46.15 H124.62 V41.54 H120.00 Z M133.85,41.54 V46.15 H138.46 V41.54 H133.85 Z M138.46,41.54 V46.15 H143.08 V41.54 H138.46 Z M152.31,41.54 V46.15 H156.92 V41.54 H152.31 Z M156.92,41.54 V46.15 H161.54 V41.54 H156.92 Z M166.15,41.54 V46.15 H170.77 V41.54 H166.15 Z M170.77,41.54 V46.15 H175.38 V41.54 H170.77 Z M9.23,46.15 V50.77 H13.85 V46.15 H9.23 Z M23.08,46.15 V50.77 H27.69 V46.15 H23.08 Z M41.54,46.15 V50.77 H46.15 V46.15 H41.54 Z M50.77,46.15 V50.77 H55.38 V46.15 H50.77 Z M55.38,46.15 V50.77 H60.00 V46.15 H55.38 Z M64.62,46.15 V50.77 H69.23 V46.15 H64.62 Z M73.85,46.15 V50.77 H78.46 V46.15 H73.85 Z M92.31,46.15 V50.77 H96.92 V46.15 H92.31 Z M96.92,46.15 V50.77 H101.54 V46.15 H96.92 Z M101.54,46.15 V50.77 H106.15 V46.15 H101.54 Z M110.77,46.15 V50.77 H115.38 V46.15 H110.77 Z M120.00,46.15 V50.77 H124.62 V46.15 H120.00 Z M129.23,46.15 V50.77 H133.85 V46.15 H129.23 Z M133.85,46.15 V50.77 H138.46 V46.15 H133.85 Z M143.08,46.15 V50.77 H147.69 V46.15 H143.08 Z M166.15,46.15 V50.77 H170.77 V46.15 H166.15 Z M9.23,50.77 V55.38 H13.85 V50.77 H9.23 Z M13.85,50.77 V55.38 H18.46 V50.77 H13.85 Z M27.69,50.77 V55.38 H32.31 V50.77 H27.69 Z M32.31,50.77 V55.38 H36.92 V50.77 H32.31 Z M36.92,50.77 V55.38 H41.54 V50.77 H36.92 Z M41.54,50.77 V55.38 H46.15 V50.77 H41.54 Z M60.00,50.77 V55.38 H64.62 V50.77 H60.00 Z M78.46,50.77 V55.38 H83.08 V50.77 H78.46 Z M83.08,50.77 V55.38 H87.69 V50.77 H83.08 Z M96.92,50.77 V55.38 H101.54 V50.77 H96.92 Z M101.54,50.77 V55.38 H106.15 V50.77 H101.54 Z M110.77,50.77 V55.38 H115.38 V50.77 H110.77 Z M115.38,50.77 V55.38 H120.00 V50.77 H115.38 Z M120.00,50.77 V55.38 H124.62 V50.77 H120.00 Z M138.46,50.77 V55.38 H143.08 V50.77 H138.46 Z M147.69,50.77 V55.38 H152.31 V50.77 H147.69 Z M166.15,50.77 V55.38 H170.77 V50.77 H166.15 Z M170.77,50.77 V55.38 H175.38 V50.77 H170.77 Z M4.62,55.38 V60.00 H9.23 V55.38 H4.62 Z M23.08,55.38 V60.00 H27.69 V55.38 H23.08 Z M36.92,55.38 V60.00 H41.54 V55.38 H36.92 Z M41.54,55.38 V60.00 H46.15 V55.38 H41.54 Z M50.77,55.38 V60.00 H55.38 V55.38 H50.77 Z M55.38,55.38 V60.00 H60.00 V55.38 H55.38 Z M60.00,55.38 V60.00 H64.62 V55.38 H60.00 Z M69.23,55.38 V60.00 H73.85 V55.38 H69.23 Z M73.85,55.38 V60.00 H78.46 V55.38 H73.85 Z M83.08,55.38 V60.00 H87.69 V55.38 H83.08 Z M87.69,55.38 V60.00 H92.31 V55.38 H87.69 Z M133.85,55.38 V60.00 H138.46 V55.38 H133.85 Z M138.46,55.38 V60.00 H143.08 V55.38 H138.46 Z M147.69,55.38 V60.00 H152.31 V55.38 H147.69 Z M152.31,55.38 V60.00 H156.92 V55.38 H152.31 Z M161.54,55.38 V60.00 H166.15 V55.38 H161.54 Z M170.77,55.38 V60.00 H175.38 V55.38 H170.77 Z M4.62,60.00 V64.62 H9.23 V60.00 H4.62 Z M13.85,60.00 V64.62 H18.46 V60.00 H13.85 Z M18.46,60.00 V64.62 H23.08 V60.00 H18.46 Z M27.69,60.00 V64.62 H32.31 V60.00 H27.69 Z M32.31,60.00 V64.62 H36.92 V60.00 H32.31 Z M46.15,60.00 V64.62 H50.77 V60.00 H46.15 Z M55.38,60.00 V64.62 H60.00 V60.00 H55.38 Z M60.00,60.00 V64.62 H64.62 V60.00 H60.00 Z M69.23,60.00 V64.62 H73.85 V60.00 H69.23 Z M83.08,60.00 V64.62 H87.69 V60.00 H83.08 Z M92.31,60.00 V64.62 H96.92 V60.00 H92.31 Z M96.92,60.00 V64.62 H101.54 V60.00 H96.92 Z M106.15,60.00 V64.62 H110.77 V60.00 H106.15 Z M120.00,60.00 V64.62 H124.62 V60.00 H120.00 Z M129.23,60.00 V64.62 H133.85 V60.00 H129.23 Z M133.85,60.00 V64.62 H138.46 V60.00 H133.85 Z M143.08,60.00 V64.62 H147.69 V60.00 H143.08 Z M152.31,60.00 V64.62 H156.92 V60.00 H152.31 Z M156.92,60.00 V64.62 H161.54 V60.00 H156.92 Z M161.54,60.00 V64.62 H166.15 V60.00 H161.54 Z M4.62,64.62 V69.23 H9.23 V64.62 H4.62 Z M13.85,64.62 V69.23 H18.46 V64.62 H13.85 Z M18.46,64.62 V69.23 H23.08 V64.62 H18.46 Z M36.92,64.62 V69.23 H41.54 V64.62 H36.92 Z M50.77,64.62 V69.23 H55.38 V64.62 H50.77 Z M60.00,64.62 V69.23 H64.62 V64.62 H60.00 Z M64.62,64.62 V69.23 H69.23 V64.62 H64.62 Z M69.23,64.62 V69.23 H73.85 V64.62 H69.23 Z M78.46,64.62 V69.23 H83.08 V64.62 H78.46 Z M83.08,64.62 V69.23 H87.69 V64.62 H83.08 Z M92.31,64.62 V69.23 H96.92 V64.62 H92.31 Z M106.15,64.62 V69.23 H110.77 V64.62 H106.15 Z M124.62,64.62 V69.23 H129.23 V64.62 H124.62 Z M133.85,64.62 V69.23 H138.46 V64.62 H133.85 Z M138.46,64.62 V69.23 H143.08 V64.62 H138.46 Z M147.69,64.62 V69.23 H152.31 V64.62 H147.69 Z M4.62,69.23 V73.85 H9.23 V69.23 H4.62 Z M32.31,69.23 V73.85 H36.92 V69.23 H32.31 Z M41.54,69.23 V73.85 H46.15 V69.23 H41.54 Z M50.77,69.23 V73.85 H55.38 V69.23 H50.77 Z M73.85,69.23 V73.85 H78.46 V69.23 H73.85 Z M96.92,69.23 V73.85 H101.54 V69.23 H96.92 Z M106.15,69.23 V73.85 H110.77 V69.23 H106.15 Z M110.77,69.23 V73.85 H115.38 V69.23 H110.77 Z M115.38,69.23 V73.85 H120.00 V69.23 H115.38 Z M124.62,69.23 V73.85 H129.23 V69.23 H124.62 Z M147.69,69.23 V73.85 H152.31 V69.23 H147.69 Z M152.31,69.23 V73.85 H156.92 V69.23 H152.31 Z M156.92,69.23 V73.85 H161.54 V69.23 H156.92 Z M161.54,69.23 V73.85 H166.15 V69.23 H161.54 Z M166.15,69.23 V73.85 H170.77 V69.23 H166.15 Z M13.85,73.85 V78.46 H18.46 V73.85 H13.85 Z M46.15,73.85 V78.46 H50.77 V73.85 H46.15 Z M50.77,73.85 V78.46 H55.38 V73.85 H50.77 Z M55.38,73.85 V78.46 H60.00 V73.85 H55.38 Z M64.62,73.85 V78.46 H69.23 V73.85 H64.62 Z M69.23,73.85 V78.46 H73.85 V73.85 H69.23 Z M78.46,73.85 V78.46 H83.08 V73.85 H78.46 Z M83.08,73.85 V78.46 H87.69 V73.85 H83.08 Z M87.69,73.85 V78.46 H92.31 V73.85 H87.69 Z M92.31,73.85 V78.46 H96.92 V73.85 H92.31 Z M96.92,73.85 V78.46 H101.54 V73.85 H96.92 Z M101.54,73.85 V78.46 H106.15 V73.85 H101.54 Z M106.15,73.85 V78.46 H110.77 V73.85 H106.15 Z M110.77,73.85 V78.46 H115.38 V73.85 H110.77 Z M115.38,73.85 V78.46 H120.00 V73.85 H115.38 Z M124.62,73.85 V78.46 H129.23 V73.85 H124.62 Z M129.23,73.85 V78.46 H133.85 V73.85 H129.23 Z M133.85,73.85 V78.46 H138.46 V73.85 H133.85 Z M143.08,73.85 V78.46 H147.69 V73.85 H143.08 Z M152.31,73.85 V78.46 H156.92 V73.85 H152.31 Z M161.54,73.85 V78.46 H166.15 V73.85 H161.54 Z M166.15,73.85 V78.46 H170.77 V73.85 H166.15 Z M170.77,73.85 V78.46 H175.38 V73.85 H170.77 Z M4.62,78.46 V83.08 H9.23 V78.46 H4.62 Z M9.23,78.46 V83.08 H13.85 V78.46 H9.23 Z M13.85,78.46 V83.08 H18.46 V78.46 H13.85 Z M32.31,78.46 V83.08 H36.92 V78.46 H32.31 Z M36.92,78.46 V83.08 H41.54 V78.46 H36.92 Z M46.15,78.46 V83.08 H50.77 V78.46 H46.15 Z M60.00,78.46 V83.08 H64.62 V78.46 H60.00 Z M64.62,78.46 V83.08 H69.23 V78.46 H64.62 Z M73.85,78.46 V83.08 H78.46 V78.46 H73.85 Z M96.92,78.46 V83.08 H101.54 V78.46 H96.92 Z M106.15,78.46 V83.08 H110.77 V78.46 H106.15 Z M110.77,78.46 V83.08 H115.38 V78.46 H110.77 Z M120.00,78.46 V83.08 H124.62 V78.46 H120.00 Z M124.62,78.46 V83.08 H129.23 V78.46 H124.62 Z M129.23,78.46 V83.08 H133.85 V78.46 H129.23 Z M133.85,78.46 V83.08 H138.46 V78.46 H133.85 Z M161.54,78.46 V83.08 H166.15 V78.46 H161.54 Z M166.15,78.46 V83.08 H170.77 V78.46 H166.15 Z M4.62,83.08 V87.69 H9.23 V83.08 H4.62 Z M9.23,83.08 V87.69 H13.85 V83.08 H9.23 Z M18.46,83.08 V87.69 H23.08 V83.08 H18.46 Z M23.08,83.08 V87.69 H27.69 V83.08 H23.08 Z M27.69,83.08 V87.69 H32.31 V83.08 H27.69 Z M41.54,83.08 V87.69 H46.15 V83.08 H41.54 Z M55.38,83.08 V87.69 H60.00 V83.08 H55.38 Z M83.08,83.08 V87.69 H87.69 V83.08 H83.08 Z M96.92,83.08 V87.69 H101.54 V83.08 H96.92 Z M106.15,83.08 V87.69 H110.77 V83.08 H106.15 Z M110.77,83.08 V87.69 H115.38 V83.08 H110.77 Z M120.00,83.08 V87.69 H124.62 V83.08 H120.00 Z M138.46,83.08 V87.69 H143.08 V83.08 H138.46 Z M152.31,83.08 V87.69 H156.92 V83.08 H152.31 Z M156.92,83.08 V87.69 H161.54 V83.08 H156.92 Z M161.54,83.08 V87.69 H166.15 V83.08 H161.54 Z M166.15,83.08 V87.69 H170.77 V83.08 H166.15 Z M23.08,87.69 V92.31 H27.69 V87.69 H23.08 Z M27.69,87.69 V92.31 H32.31 V87.69 H27.69 Z M32.31,87.69 V92.31 H36.92 V87.69 H32.31 Z M50.77,87.69 V92.31 H55.38 V87.69 H50.77 Z M55.38,87.69 V92.31 H60.00 V87.69 H55.38 Z M64.62,87.69 V92.31 H69.23 V87.69 H64.62 Z M73.85,87.69 V92.31 H78.46 V87.69 H73.85 Z M87.69,87.69 V92.31 H92.31 V87.69 H87.69 Z M96.92,87.69 V92.31 H101.54 V87.69 H96.92 Z M106.15,87.69 V92.31 H110.77 V87.69 H106.15 Z M120.00,87.69 V92.31 H124.62 V87.69 H120.00 Z M133.85,87.69 V92.31 H138.46 V87.69 H133.85 Z M138.46,87.69 V92.31 H143.08 V87.69 H138.46 Z M147.69,87.69 V92.31 H152.31 V87.69 H147.69 Z M156.92,87.69 V92.31 H161.54 V87.69 H156.92 Z M161.54,87.69 V92.31 H166.15 V87.69 H161.54 Z M9.23,92.31 V96.92 H13.85 V92.31 H9.23 Z M13.85,92.31 V96.92 H18.46 V92.31 H13.85 Z M23.08,92.31 V96.92 H27.69 V92.31 H23.08 Z M41.54,92.31 V96.92 H46.15 V92.31 H41.54 Z M46.15,92.31 V96.92 H50.77 V92.31 H46.15 Z M69.23,92.31 V96.92 H73.85 V92.31 H69.23 Z M83.08,92.31 V96.92 H87.69 V92.31 H83.08 Z M87.69,92.31 V96.92 H92.31 V92.31 H87.69 Z M92.31,92.31 V96.92 H96.92 V92.31 H92.31 Z M101.54,92.31 V96.92 H106.15 V92.31 H101.54 Z M124.62,92.31 V96.92 H129.23 V92.31 H124.62 Z M138.46,92.31 V96.92 H143.08 V92.31 H138.46 Z M143.08,92.31 V96.92 H147.69 V92.31 H143.08 Z M152.31,92.31 V96.92 H156.92 V92.31 H152.31 Z M156.92,92.31 V96.92 H161.54 V92.31 H156.92 Z M166.15,92.31 V96.92 H170.77 V92.31 H166.15 Z M170.77,92.31 V96.92 H175.38 V92.31 H170.77 Z M13.85,96.92 V101.54 H18.46 V96.92 H13.85 Z M18.46,96.92 V101.54 H23.08 V96.92 H18.46 Z M32.31,96.92 V101.54 H36.92 V96.92 H32.31 Z M36.92,96.92 V101.54 H41.54 V96.92 H36.92 Z M41.54,96.92 V101.54 H46.15 V96.92 H41.54 Z M55.38,96.92 V101.54 H60.00 V96.92 H55.38 Z M64.62,96.92 V101.54 H69.23 V96.92 H64.62 Z M69.23,96.92 V101.54 H73.85 V96.92 H69.23 Z M78.46,96.92 V101.54 H83.08 V96.92 H78.46 Z M83.08,96.92 V101.54 H87.69 V96.92 H83.08 Z M87.69,96.92 V101.54 H92.31 V96.92 H87.69 Z M138.46,96.92 V101.54 H143.08 V96.92 H138.46 Z M147.69,96.92 V101.54 H152.31 V96.92 H147.69 Z M152.31,96.92 V101.54 H156.92 V96.92 H152.31 Z M161.54,96.92 V101.54 H166.15 V96.92 H161.54 Z M166.15,96.92 V101.54 H170.77 V96.92 H166.15 Z M170.77,96.92 V101.54 H175.38 V96.92 H170.77 Z M9.23,101.54 V106.15 H13.85 V101.54 H9.23 Z M13.85,101.54 V106.15 H18.46 V101.54 H13.85 Z M18.46,101.54 V106.15 H23.08 V101.54 H18.46 Z M23.08,101.54 V106.15 H27.69 V101.54 H23.08 Z M50.77,101.54 V106.15 H55.38 V101.54 H50.77 Z M64.62,101.54 V106.15 H69.23 V101.54 H64.62 Z M101.54,101.54 V106.15 H106.15 V101.54 H101.54 Z M138.46,101.54 V106.15 H143.08 V101.54 H138.46 Z M9.23,106.15 V110.77 H13.85 V106.15 H9.23 Z M18.46,106.15 V110.77 H23.08 V106.15 H18.46 Z M23.08,106.15 V110.77 H27.69 V106.15 H23.08 Z M27.69,106.15 V110.77 H32.31 V106.15 H27.69 Z M32.31,106.15 V110.77 H36.92 V106.15 H32.31 Z M36.92,106.15 V110.77 H41.54 V106.15 H36.92 Z M46.15,106.15 V110.77 H50.77 V106.15 H46.15 Z M50.77,106.15 V110.77 H55.38 V106.15 H50.77 Z M101.54,106.15 V110.77 H106.15 V106.15 H101.54 Z M110.77,106.15 V110.77 H115.38 V106.15 H110.77 Z M120.00,106.15 V110.77 H124.62 V106.15 H120.00 Z M124.62,106.15 V110.77 H129.23 V106.15 H124.62 Z M129.23,106.15 V110.77 H133.85 V106.15 H129.23 Z M133.85,106.15 V110.77 H138.46 V106.15 H133.85 Z M138.46,106.15 V110.77 H143.08 V106.15 H138.46 Z M147.69,106.15 V110.77 H152.31 V106.15 H147.69 Z M156.92,106.15 V110.77 H161.54 V106.15 H156.92 Z M161.54,106.15 V110.77 H166.15 V106.15 H161.54 Z M170.77,106.15 V110.77 H175.38 V106.15 H170.77 Z M4.62,110.77 V115.38 H9.23 V110.77 H4.62 Z M27.69,110.77 V115.38 H32.31 V110.77 H27.69 Z M46.15,110.77 V115.38 H50.77 V110.77 H46.15 Z M50.77,110.77 V115.38 H55.38 V110.77 H50.77 Z M64.62,110.77 V115.38 H69.23 V110.77 H64.62 Z M87.69,110.77 V115.38 H92.31 V110.77 H87.69 Z M92.31,110.77 V115.38 H96.92 V110.77 H92.31 Z M96.92,110.77 V115.38 H101.54 V110.77 H96.92 Z M101.54,110.77 V115.38 H106.15 V110.77 H101.54 Z M106.15,110.77 V115.38 H110.77 V110.77 H106.15 Z M110.77,110.77 V115.38 H115.38 V110.77 H110.77 Z M115.38,110.77 V115.38 H120.00 V110.77 H115.38 Z M120.00,110.77 V115.38 H124.62 V110.77 H120.00 Z M133.85,110.77 V115.38 H138.46 V110.77 H133.85 Z M143.08,110.77 V115.38 H147.69 V110.77 H143.08 Z M156.92,110.77 V115.38 H161.54 V110.77 H156.92 Z M161.54,110.77 V115.38 H166.15 V110.77 H161.54 Z M166.15,110.77 V115.38 H170.77 V110.77 H166.15 Z M13.85,115.38 V120.00 H18.46 V115.38 H13.85 Z M18.46,115.38 V120.00 H23.08 V115.38 H18.46 Z M32.31,115.38 V120.00 H36.92 V115.38 H32.31 Z M36.92,115.38 V120.00 H41.54 V115.38 H36.92 Z M41.54,115.38 V120.00 H46.15 V115.38 H41.54 Z M50.77,115.38 V120.00 H55.38 V115.38 H50.77 Z M60.00,115.38 V120.00 H64.62 V115.38 H60.00 Z M69.23,115.38 V120.00 H73.85 V115.38 H69.23 Z M73.85,115.38 V120.00 H78.46 V115.38 H73.85 Z M83.08,115.38 V120.00 H87.69 V115.38 H83.08 Z M87.69,115.38 V120.00 H92.31 V115.38 H87.69 Z M96.92,115.38 V120.00 H101.54 V115.38 H96.92 Z M106.15,115.38 V120.00 H110.77 V115.38 H106.15 Z M120.00,115.38 V120.00 H124.62 V115.38 H120.00 Z M133.85,115.38 V120.00 H138.46 V115.38 H133.85 Z M147.69,115.38 V120.00 H152.31 V115.38 H147.69 Z M156.92,115.38 V120.00 H161.54 V115.38 H156.92 Z M13.85,120.00 V124.62 H18.46 V120.00 H13.85 Z M18.46,120.00 V124.62 H23.08 V120.00 H18.46 Z M27.69,120.00 V124.62 H32.31 V120.00 H27.69 Z M36.92,120.00 V124.62 H41.54 V120.00 H36.92 Z M46.15,120.00 V124.62 H50.77 V120.00 H46.15 Z M50.77,120.00 V124.62 H55.38 V120.00 H50.77 Z M64.62,120.00 V124.62 H69.23 V120.00 H64.62 Z M69.23,120.00 V124.62 H73.85 V120.00 H69.23 Z M78.46,120.00 V124.62 H83.08 V120.00 H78.46 Z M87.69,120.00 V124.62 H92.31 V120.00 H87.69 Z M92.31,120.00 V124.62 H96.92 V120.00 H92.31 Z M101.54,120.00 V124.62 H106.15 V120.00 H101.54 Z M106.15,120.00 V124.62 H110.77 V120.00 H106.15 Z M120.00,120.00 V124.62 H124.62 V120.00 H120.00 Z M124.62,120.00 V124.62 H129.23 V120.00 H124.62 Z M133.85,120.00 V124.62 H138.46 V120.00 H133.85 Z M147.69,120.00 V124.62 H152.31 V120.00 H147.69 Z M4.62,124.62 V129.23 H9.23 V124.62 H4.62 Z M23.08,124.62 V129.23 H27.69 V124.62 H23.08 Z M27.69,124.62 V129.23 H32.31 V124.62 H27.69 Z M32.31,124.62 V129.23 H36.92 V124.62 H32.31 Z M55.38,124.62 V129.23 H60.00 V124.62 H55.38 Z M64.62,124.62 V129.23 H69.23 V124.62 H64.62 Z M92.31,124.62 V129.23 H96.92 V124.62 H92.31 Z M96.92,124.62 V129.23 H101.54 V124.62 H96.92 Z M101.54,124.62 V129.23 H106.15 V124.62 H101.54 Z M106.15,124.62 V129.23 H110.77 V124.62 H106.15 Z M124.62,124.62 V129.23 H129.23 V124.62 H124.62 Z M138.46,124.62 V129.23 H143.08 V124.62 H138.46 Z M143.08,124.62 V129.23 H147.69 V124.62 H143.08 Z M152.31,124.62 V129.23 H156.92 V124.62 H152.31 Z M170.77,124.62 V129.23 H175.38 V124.62 H170.77 Z M13.85,129.23 V133.85 H18.46 V129.23 H13.85 Z M18.46,129.23 V133.85 H23.08 V129.23 H18.46 Z M36.92,129.23 V133.85 H41.54 V129.23 H36.92 Z M41.54,129.23 V133.85 H46.15 V129.23 H41.54 Z M46.15,129.23 V133.85 H50.77 V129.23 H46.15 Z M50.77,129.23 V133.85 H55.38 V129.23 H50.77 Z M55.38,129.23 V133.85 H60.00 V129.23 H55.38 Z M64.62,129.23 V133.85 H69.23 V129.23 H64.62 Z M69.23,129.23 V133.85 H73.85 V129.23 H69.23 Z M83.08,129.23 V133.85 H87.69 V129.23 H83.08 Z M87.69,129.23 V133.85 H92.31 V129.23 H87.69 Z M92.31,129.23 V133.85 H96.92 V129.23 H92.31 Z M101.54,129.23 V133.85 H106.15 V129.23 H101.54 Z M106.15,129.23 V133.85 H110.77 V129.23 H106.15 Z M110.77,129.23 V133.85 H115.38 V129.23 H110.77 Z M115.38,129.23 V133.85 H120.00 V129.23 H115.38 Z M120.00,129.23 V133.85 H124.62 V129.23 H120.00 Z M124.62,129.23 V133.85 H129.23 V129.23 H124.62 Z M129.23,129.23 V133.85 H133.85 V129.23 H129.23 Z M152.31,129.23 V133.85 H156.92 V129.23 H152.31 Z M166.15,129.23 V133.85 H170.77 V129.23 H166.15 Z M9.23,133.85 V138.46 H13.85 V133.85 H9.23 Z M13.85,133.85 V138.46 H18.46 V133.85 H13.85 Z M18.46,133.85 V138.46 H23.08 V133.85 H18.46 Z M23.08,133.85 V138.46 H27.69 V133.85 H23.08 Z M27.69,133.85 V138.46 H32.31 V133.85 H27.69 Z M32.31,133.85 V138.46 H36.92 V133.85 H32.31 Z M41.54,133.85 V138.46 H46.15 V133.85 H41.54 Z M50.77,133.85 V138.46 H55.38 V133.85 H50.77 Z M60.00,133.85 V138.46 H64.62 V133.85 H60.00 Z M92.31,133.85 V138.46 H96.92 V133.85 H92.31 Z M96.92,133.85 V138.46 H101.54 V133.85 H96.92 Z M106.15,133.85 V138.46 H110.77 V133.85 H106.15 Z M110.77,133.85 V138.46 H115.38 V133.85 H110.77 Z M115.38,133.85 V138.46 H120.00 V133.85 H115.38 Z M120.00,133.85 V138.46 H124.62 V133.85 H120.00 Z M124.62,133.85 V138.46 H129.23 V133.85 H124.62 Z M133.85,133.85 V138.46 H138.46 V133.85 H133.85 Z M138.46,133.85 V138.46 H143.08 V133.85 H138.46 Z M143.08,133.85 V138.46 H147.69 V133.85 H143.08 Z M147.69,133.85 V138.46 H152.31 V133.85 H147.69 Z M152.31,133.85 V138.46 H156.92 V133.85 H152.31 Z M156.92,133.85 V138.46 H161.54 V133.85 H156.92 Z M170.77,133.85 V138.46 H175.38 V133.85 H170.77 Z M50.77,138.46 V143.08 H55.38 V138.46 H50.77 Z M64.62,138.46 V143.08 H69.23 V138.46 H64.62 Z M83.08,138.46 V143.08 H87.69 V138.46 H83.08 Z M92.31,138.46 V143.08 H96.92 V138.46 H92.31 Z M96.92,138.46 V143.08 H101.54 V138.46 H96.92 Z M101.54,138.46 V143.08 H106.15 V138.46 H101.54 Z M106.15,138.46 V143.08 H110.77 V138.46 H106.15 Z M124.62,138.46 V143.08 H129.23 V138.46 H124.62 Z M129.23,138.46 V143.08 H133.85 V138.46 H129.23 Z M133.85,138.46 V143.08 H138.46 V138.46 H133.85 Z M152.31,138.46 V143.08 H156.92 V138.46 H152.31 Z M156.92,138.46 V143.08 H161.54 V138.46 H156.92 Z M161.54,138.46 V143.08 H166.15 V138.46 H161.54 Z M170.77,138.46 V143.08 H175.38 V138.46 H170.77 Z M4.62,143.08 V147.69 H9.23 V143.08 H4.62 Z M9.23,143.08 V147.69 H13.85 V143.08 H9.23 Z M13.85,143.08 V147.69 H18.46 V143.08 H13.85 Z M18.46,143.08 V147.69 H23.08 V143.08 H18.46 Z M23.08,143.08 V147.69 H27.69 V143.08 H23.08 Z M27.69,143.08 V147.69 H32.31 V143.08 H27.69 Z M32.31,143.08 V147.69 H36.92 V143.08 H32.31 Z M41.54,143.08 V147.69 H46.15 V143.08 H41.54 Z M50.77,143.08 V147.69 H55.38 V143.08 H50.77 Z M60.00,143.08 V147.69 H64.62 V143.08 H60.00 Z M69.23,143.08 V147.69 H73.85 V143.08 H69.23 Z M78.46,143.08 V147.69 H83.08 V143.08 H78.46 Z M96.92,143.08 V147.69 H101.54 V143.08 H96.92 Z M106.15,143.08 V147.69 H110.77 V143.08 H106.15 Z M115.38,143.08 V147.69 H120.00 V143.08 H115.38 Z M133.85,143.08 V147.69 H138.46 V143.08 H133.85 Z M143.08,143.08 V147.69 H147.69 V143.08 H143.08 Z M152.31,143.08 V147.69 H156.92 V143.08 H152.31 Z M156.92,143.08 V147.69 H161.54 V143.08 H156.92 Z M166.15,143.08 V147.69 H170.77 V143.08 H166.15 Z M4.62,147.69 V152.31 H9.23 V147.69 H4.62 Z M32.31,147.69 V152.31 H36.92 V147.69 H32.31 Z M46.15,147.69 V152.31 H50.77 V147.69 H46.15 Z M50.77,147.69 V152.31 H55.38 V147.69 H50.77 Z M60.00,147.69 V152.31 H64.62 V147.69 H60.00 Z M73.85,147.69 V152.31 H78.46 V147.69 H73.85 Z M83.08,147.69 V152.31 H87.69 V147.69 H83.08 Z M87.69,147.69 V152.31 H92.31 V147.69 H87.69 Z M96.92,147.69 V152.31 H101.54 V147.69 H96.92 Z M124.62,147.69 V152.31 H129.23 V147.69 H124.62 Z M133.85,147.69 V152.31 H138.46 V147.69 H133.85 Z M152.31,147.69 V152.31 H156.92 V147.69 H152.31 Z M156.92,147.69 V152.31 H161.54 V147.69 H156.92 Z M161.54,147.69 V152.31 H166.15 V147.69 H161.54 Z M166.15,147.69 V152.31 H170.77 V147.69 H166.15 Z M170.77,147.69 V152.31 H175.38 V147.69 H170.77 Z M4.62,152.31 V156.92 H9.23 V152.31 H4.62 Z M13.85,152.31 V156.92 H18.46 V152.31 H13.85 Z M18.46,152.31 V156.92 H23.08 V152.31 H18.46 Z M23.08,152.31 V156.92 H27.69 V152.31 H23.08 Z M32.31,152.31 V156.92 H36.92 V152.31 H32.31 Z M46.15,152.31 V156.92 H50.77 V152.31 H46.15 Z M50.77,152.31 V156.92 H55.38 V152.31 H50.77 Z M55.38,152.31 V156.92 H60.00 V152.31 H55.38 Z M64.62,152.31 V156.92 H69.23 V152.31 H64.62 Z M96.92,152.31 V156.92 H101.54 V152.31 H96.92 Z M101.54,152.31 V156.92 H106.15 V152.31 H101.54 Z M106.15,152.31 V156.92 H110.77 V152.31 H106.15 Z M120.00,152.31 V156.92 H124.62 V152.31 H120.00 Z M129.23,152.31 V156.92 H133.85 V152.31 H129.23 Z M133.85,152.31 V156.92 H138.46 V152.31 H133.85 Z M138.46,152.31 V156.92 H143.08 V152.31 H138.46 Z M143.08,152.31 V156.92 H147.69 V152.31 H143.08 Z M147.69,152.31 V156.92 H152.31 V152.31 H147.69 Z M152.31,152.31 V156.92 H156.92 V152.31 H152.31 Z M161.54,152.31 V156.92 H166.15 V152.31 H161.54 Z M170.77,152.31 V156.92 H175.38 V152.31 H170.77 Z M4.62,156.92 V161.54 H9.23 V156.92 H4.62 Z M13.85,156.92 V161.54 H18.46 V156.92 H13.85 Z M18.46,156.92 V161.54 H23.08 V156.92 H18.46 Z M23.08,156.92 V161.54 H27.69 V156.92 H23.08 Z M32.31,156.92 V161.54 H36.92 V156.92 H32.31 Z M50.77,156.92 V161.54 H55.38 V156.92 H50.77 Z M60.00,156.92 V161.54 H64.62 V156.92 H60.00 Z M64.62,156.92 V161.54 H69.23 V156.92 H64.62 Z M78.46,156.92 V161.54 H83.08 V156.92 H78.46 Z M83.08,156.92 V161.54 H87.69 V156.92 H83.08 Z M92.31,156.92 V161.54 H96.92 V156.92 H92.31 Z M96.92,156.92 V161.54 H101.54 V156.92 H96.92 Z M106.15,156.92 V161.54 H110.77 V156.92 H106.15 Z M110.77,156.92 V161.54 H115.38 V156.92 H110.77 Z M115.38,156.92 V161.54 H120.00 V156.92 H115.38 Z M129.23,156.92 V161.54 H133.85 V156.92 H129.23 Z M133.85,156.92 V161.54 H138.46 V156.92 H133.85 Z M138.46,156.92 V161.54 H143.08 V156.92 H138.46 Z M143.08,156.92 V161.54 H147.69 V156.92 H143.08 Z M147.69,156.92 V161.54 H152.31 V156.92 H147.69 Z M152.31,156.92 V161.54 H156.92 V156.92 H152.31 Z M156.92,156.92 V161.54 H161.54 V156.92 H156.92 Z M166.15,156.92 V161.54 H170.77 V156.92 H166.15 Z M170.77,156.92 V161.54 H175.38 V156.92 H170.77 Z M4.62,161.54 V166.15 H9.23 V161.54 H4.62 Z M13.85,161.54 V166.15 H18.46 V161.54 H13.85 Z M18.46,161.54 V166.15 H23.08 V161.54 H18.46 Z M23.08,161.54 V166.15 H27.69 V161.54 H23.08 Z M32.31,161.54 V166.15 H36.92 V161.54 H32.31 Z M50.77,161.54 V166.15 H55.38 V161.54 H50.77 Z M55.38,161.54 V166.15 H60.00 V161.54 H55.38 Z M64.62,161.54 V166.15 H69.23 V161.54 H64.62 Z M73.85,161.54 V166.15 H78.46 V161.54 H73.85 Z M78.46,161.54 V166.15 H83.08 V161.54 H78.46 Z M101.54,161.54 V166.15 H106.15 V161.54 H101.54 Z M106.15,161.54 V166.15 H110.77 V161.54 H106.15 Z M110.77,161.54 V166.15 H115.38 V161.54 H110.77 Z M120.00,161.54 V166.15 H124.62 V161.54 H120.00 Z M124.62,161.54 V166.15 H129.23 V161.54 H124.62 Z M129.23,161.54 V166.15 H133.85 V161.54 H129.23 Z M133.85,161.54 V166.15 H138.46 V161.54 H133.85 Z M156.92,161.54 V166.15 H161.54 V161.54 H156.92 Z M161.54,161.54 V166.15 H166.15 V161.54 H161.54 Z M166.15,161.54 V166.15 H170.77 V161.54 H166.15 Z M4.62,166.15 V170.77 H9.23 V166.15 H4.62 Z M32.31,166.15 V170.77 H36.92 V166.15 H32.31 Z M46.15,166.15 V170.77 H50.77 V166.15 H46.15 Z M50.77,166.15 V170.77 H55.38 V166.15 H50.77 Z M60.00,166.15 V170.77 H64.62 V166.15 H60.00 Z M64.62,166.15 V170.77 H69.23 V166.15 H64.62 Z M69.23,166.15 V170.77 H73.85 V166.15 H69.23 Z M78.46,166.15 V170.77 H83.08 V166.15 H78.46 Z M96.92,166.15 V170.77 H101.54 V166.15 H96.92 Z M101.54,166.15 V170.77 H106.15 V166.15 H101.54 Z M110.77,166.15 V170.77 H115.38 V166.15 H110.77 Z M120.00,166.15 V170.77 H124.62 V166.15 H120.00 Z M124.62,166.15 V170.77 H129.23 V166.15 H124.62 Z M133.85,166.15 V170.77 H138.46 V166.15 H133.85 Z M138.46,166.15 V170.77 H143.08 V166.15 H138.46 Z M166.15,166.15 V170.77 H170.77 V166.15 H166.15 Z M4.62,170.77 V175.38 H9.23 V170.77 H4.62 Z M9.23,170.77 V175.38 H13.85 V170.77 H9.23 Z M13.85,170.77 V175.38 H18.46 V170.77 H13.85 Z M18.46,170.77 V175.38 H23.08 V170.77 H18.46 Z M23.08,170.77 V175.38 H27.69 V170.77 H23.08 Z M27.69,170.77 V175.38 H32.31 V170.77 H27.69 Z M32.31,170.77 V175.38 H36.92 V170.77 H32.31 Z M41.54,170.77 V175.38 H46.15 V170.77 H41.54 Z M50.77,170.77 V175.38 H55.38 V170.77 H50.77 Z M60.00,170.77 V175.38 H64.62 V170.77 H60.00 Z M69.23,170.77 V175.38 H73.85 V170.77 H69.23 Z M73.85,170.77 V175.38 H78.46 V170.77 H73.85 Z M78.46,170.77 V175.38 H83.08 V170.77 H78.46 Z M87.69,170.77 V175.38 H92.31 V170.77 H87.69 Z M92.31,170.77 V175.38 H96.92 V170.77 H92.31 Z M96.92,170.77 V175.38 H101.54 V170.77 H96.92 Z M106.15,170.77 V175.38 H110.77 V170.77 H106.15 Z M110.77,170.77 V175.38 H115.38 V170.77 H110.77 Z M115.38,170.77 V175.38 H120.00 V170.77 H115.38 Z M124.62,170.77 V175.38 H129.23 V170.77 H124.62 Z M129.23,170.77 V175.38 H133.85 V170.77 H129.23 Z M143.08,170.77 V175.38 H147.69 V170.77 H143.08 Z M147.69,170.77 V175.38 H152.31 V170.77 H147.69 Z M152.31,170.77 V175.38 H156.92 V170.77 H152.31 Z M161.54,170.77 V175.38 H166.15 V170.77 H161.54 Z M166.15,170.77 V175.38 H170.77 V170.77 H166.15 Z M170.77,170.77 V175.38 H175.38 V170.77 H170.77 Z "></path>
</svg>